<svg width="30" height="17" viewBox="0 0 30 17" fill="none" xmlns="http://www.w3.org/2000/svg">
<path fill-rule="evenodd" clip-rule="evenodd" d="M14.2653 1.60712C10.3347 1.72137 6.68632 2.79692 4.39573 4.51666C4.06706 4.76342 3.8585 4.94148 3.58934 5.20516C3.08313 5.70105 2.76173 6.11927 2.47284 6.65793C2.12403 7.30833 1.95073 8.11094 2.01221 8.79126C2.13681 10.1702 2.95004 11.4264 4.43108 12.5276C6.76212 14.261 10.4956 15.3272 14.4842 15.3986C15.6179 15.4189 16.6306 15.3755 17.6598 15.2623C22.4731 14.733 26.3507 12.7701 27.5857 10.2375C28.0847 9.21433 28.134 8.12312 27.7279 7.09069C27.272 5.9317 26.2341 4.83426 24.7526 3.94453C24.4231 3.74666 24.251 3.65234 23.8916 3.4727C21.2862 2.1704 17.8431 1.50312 14.2653 1.60712ZM16.2212 1.91254C17.183 1.97478 17.9429 2.06611 18.7921 2.22152C20.9109 2.60926 22.8629 3.33259 24.3642 4.28634C25.3823 4.9331 26.1852 5.69834 26.681 6.49433C27.8245 8.33 27.3509 10.3018 25.3704 11.9515C23.6616 13.3749 21.0029 14.4173 17.9933 14.8436C14.7082 15.309 11.1807 14.9874 8.28919 13.9588C5.33833 12.909 3.34169 11.2675 2.81668 9.4596C2.65343 8.89739 2.63499 8.29063 2.76458 7.74487C2.8977 7.18421 3.14392 6.6765 3.53611 6.15397C4.9846 4.22408 8.11866 2.69682 11.8073 2.12337C12.5427 2.00902 13.3173 1.93231 14.1221 1.89408C14.4951 1.87638 15.8458 1.88825 16.2212 1.91254ZM8.28265 4.61622C8.16204 4.66563 8.20071 4.92068 8.34738 5.26736C8.42499 5.45077 8.52504 5.62389 8.72748 5.925C8.82184 6.06537 8.94223 6.24795 8.995 6.33073C9.1814 6.62316 9.41305 6.91541 9.84566 7.40394C10.0797 7.66822 10.2379 7.80968 10.2248 7.84894C10.2117 7.88821 10.0306 7.91792 9.70164 7.99977C8.17225 8.38033 6.99964 8.75174 6.59583 8.98351C6.23305 9.19174 6.02464 9.39311 5.8965 9.6592C5.79052 9.87928 5.73521 10.1722 5.76379 10.3622C5.79345 10.5594 5.92163 10.7451 6.08191 10.8232C6.21119 10.8861 6.39946 10.8969 6.52361 10.8484C6.59378 10.821 6.67228 10.7479 6.84507 10.549C7.07209 10.2878 7.55422 9.80571 7.75951 9.63465C8.20397 9.26433 8.50715 9.06985 9.0935 8.77896C9.44018 8.60698 9.74295 8.50329 9.89782 8.50348C10.0875 8.50372 10.045 8.51004 10.3752 8.87635C10.5527 9.08185 10.7465 9.25423 11.0422 9.49284C11.5246 9.88213 11.9743 10.1235 12.4426 10.2443C12.6244 10.2912 12.8247 10.3476 12.8731 10.3095C12.9499 10.2491 12.7888 10.0963 12.6052 9.90121C12.2625 9.5371 11.8436 9.24362 11.2098 8.92358C10.8952 8.76476 10.6302 8.5426 10.6302 8.5426C10.6302 8.5426 10.5016 8.4178 10.5321 8.379C10.5686 8.33253 10.7505 8.29792 10.9415 8.26485C11.0812 8.24065 11.1585 8.23602 11.428 8.23564C11.9007 8.23498 12.0266 8.26247 12.1451 8.39216C12.1795 8.42989 12.2333 8.5042 12.2646 8.5573C12.6864 9.27291 13.1121 9.90069 13.4529 10.3095C13.7124 10.6207 14.3401 11.2046 14.4687 11.2584C14.6328 11.327 14.5863 11.1247 14.4961 10.9075C14.365 10.5915 14.142 10.1691 13.9594 9.89092C13.7514 9.5741 13.6433 9.44881 13.174 8.98104C12.904 8.71188 12.7189 8.51716 12.7056 8.48826C12.6786 8.42996 12.6775 8.38268 12.702 8.33534C12.7397 8.26231 12.7502 8.26096 13.2603 8.26373C13.5663 8.26538 13.7474 8.2715 13.7843 8.28143C13.9109 8.31555 13.9525 8.3798 13.9841 8.59002C14.0442 8.99083 14.1447 9.29198 14.3661 9.73501C14.5052 10.0133 15.1054 11.061 15.1749 11.134C15.2886 11.2533 15.3216 11.134 15.2933 10.8482C15.2523 10.4342 15.1267 9.91192 14.9764 9.53073C14.8435 9.19368 14.7192 8.96859 14.5111 8.68768C14.4609 8.61993 14.4117 8.54502 14.4017 8.52123C14.1544 8.22849 14.3902 8.34628 14.4752 8.3332C14.5702 8.3332 14.6341 8.42598 14.7568 8.64729C15.0887 9.24607 15.6364 9.87366 16.1961 10.2965C16.3735 10.4306 16.5775 10.5846 16.6331 10.5843C16.6924 10.5841 16.6658 10.46 16.6658 10.46C16.6658 10.46 16.5481 10.0346 16.2118 9.68779C16.1441 9.6086 15.9831 9.444 15.8541 9.32199C15.7251 9.19999 15.5307 9.01152 15.4221 8.90318C15.1707 8.65254 15.0376 8.47719 15.0638 8.45099C15.0899 8.42478 15.2456 8.46406 15.3034 8.46406C15.3923 8.46406 15.6009 8.51628 15.6875 8.56021C15.7936 8.61401 15.8284 8.65187 15.9747 8.8728C16.2586 9.30159 16.5301 9.60291 17.1033 10.1256C17.2868 10.2929 17.4309 10.4104 17.5326 10.4758C17.6365 10.5425 17.8001 10.6212 17.8654 10.6358C18.2156 10.7676 18.1437 10.6358 18.0158 10.3945C17.9249 10.2115 17.6835 9.93117 17.4446 9.73098C17.3759 9.67345 17.1579 9.50691 16.9601 9.36085C16.5253 9.03982 16.3856 8.93573 16.3454 8.85671C16.195 8.64731 16.2539 8.68657 16.4591 8.67682C16.5285 8.68657 17.0716 8.74178 17.1759 8.77156C17.295 8.80555 17.3448 8.85094 17.6008 9.15867C18.2747 9.96868 18.7586 10.4072 19.1529 10.5651C19.3931 10.6613 19.6252 10.6535 19.6252 10.5123C19.6252 10.3693 19.3488 10.1547 18.5217 9.56057C18.0665 9.23363 17.9301 9.11705 17.8861 9.01755C17.8647 8.96918 17.8629 8.95286 17.8754 8.9227C17.8836 8.90267 17.905 8.87962 17.9229 8.87149C17.9673 8.85123 18.111 8.85314 18.3137 8.87669C18.9498 8.95057 19.0388 9.00132 19.6252 9.62464C19.848 9.8614 20.0056 9.9997 20.1924 10.1222C20.4566 10.2955 20.8183 10.4409 21.1597 10.5111C21.3493 10.5501 21.5375 10.5915 21.6399 10.5385C21.7102 10.5021 21.5169 10.3927 21.4133 10.307C21.3573 10.2607 21.055 10.05 20.4978 9.66883C20.0353 9.32134 19.6492 9.11519 19.6252 9.04649C19.6019 9.01377 19.9688 9.06823 20.2973 9.12423C20.4004 9.1418 20.523 9.16817 20.5697 9.18281C20.6165 9.19746 20.846 9.30589 21.0798 9.42376C21.5238 9.64766 21.7473 9.74262 21.9887 9.80996C22.3269 9.90431 22.612 9.9369 23.0023 9.92586C23.3731 9.91536 23.545 9.8968 23.545 9.77941C23.545 9.71963 23.3915 9.6564 23.2874 9.61037C23.1277 9.5398 22.5434 9.32737 22.4007 9.28799C22.2358 9.24249 21.9473 9.19747 21.9037 9.15774C21.8601 9.118 22.1663 9.06136 22.4661 8.96657C23.4335 8.66062 23.8626 8.49986 24.2316 8.30497C24.4041 8.21389 24.7096 8.00821 24.7844 7.93273C24.8536 7.86299 24.9715 7.73941 24.951 7.68534C24.9106 7.57903 24.6762 7.65506 23.9178 7.88161C23.4528 8.0205 23.0873 8.09761 23.0873 8.09761C23.0873 8.09761 22.8192 8.15978 22.7996 8.13033C22.78 8.10088 23.0737 7.8262 23.6824 7.32278C24.0913 6.98461 24.3287 6.77491 24.3823 6.70455C24.4471 6.61961 24.5235 6.47188 24.454 6.4359C24.3617 6.38816 24.14 6.46637 23.7418 6.67918C22.9778 7.08739 22.2879 7.55571 21.8179 8.02513C21.6882 8.15463 21.6483 8.23352 21.5331 8.40793C21.4231 8.57441 21.374 8.63617 21.305 8.69478C21.1411 8.83402 20.9953 8.87649 20.752 8.8559C20.2297 8.81173 20.3605 8.77164 20.452 8.69478C20.5436 8.61791 20.558 8.59588 20.6629 8.48851C21.0791 8.06249 21.5648 7.46591 21.8549 7.02439C22.0806 6.68083 22.1706 6.4342 22.0803 6.34383C22.0343 6.29778 21.9085 6.38465 21.8002 6.4359C21.6563 6.50403 21.4479 6.63641 21.2236 6.80222C20.9933 6.97252 20.6984 7.25998 20.6482 7.25998C20.5992 7.25998 20.8012 7.01739 20.8313 6.84771C20.8463 6.76283 20.8589 6.66113 20.8313 6.63176C20.7597 6.55554 20.6043 6.63559 20.2979 6.78262C19.9808 6.93479 19.6913 7.11742 19.3029 7.41033C18.8198 7.77454 18.5923 7.98165 18.4124 8.22109C18.271 8.40933 18.1919 8.48024 18.0889 8.51127C17.9512 8.55276 17.3807 8.49428 17.3132 8.43135C17.2736 8.39439 17.4616 8.34855 17.5061 8.2974C17.5259 8.27465 17.6127 8.2078 17.699 8.14884C18.0619 7.90093 18.4424 7.59371 19.0234 7.0795C19.2 6.92322 19.3641 6.77872 19.3882 6.75839C19.4434 6.71176 19.5888 6.58674 19.5888 6.54015C19.5888 6.48425 19.5142 6.45056 19.4584 6.43554C19.3921 6.41766 19.2931 6.47157 19.0723 6.55995C18.3911 6.83249 17.8517 7.24291 17.2321 7.96018C16.9173 8.3246 16.9056 8.33318 16.7244 8.33318C16.4196 8.33318 16.1754 8.24812 16.2081 8.20232C16.219 8.17799 16.3517 8.08167 16.3611 8.07022C16.3705 8.05876 16.5164 7.94157 16.6855 7.80981C17.3399 7.29971 17.6453 7.01819 17.9353 6.65793C18.0885 6.46769 18.2022 6.35003 18.1372 6.28493C18.1073 6.25505 18.0564 6.25352 17.9933 6.25876C17.8676 6.26919 17.3079 6.57498 16.9423 6.82346C16.5122 7.11585 16.1636 7.4501 15.8569 7.86427C15.7947 7.94828 15.7195 8.03784 15.6898 8.06328C15.5921 8.14698 15.4781 8.15109 15.106 8.08433C14.9511 8.05653 14.6924 8.01254 14.6779 7.98636C14.6635 7.96019 14.8617 7.86244 15.0371 7.74745C15.6027 7.37659 16.0692 6.9359 16.4926 6.37245C16.6487 6.16476 16.7784 5.93733 16.7901 5.85957C16.8127 5.7085 16.6484 5.72723 16.4762 5.79823C16.3248 5.86069 15.992 6.07168 15.698 6.29167C15.2061 6.65984 14.8192 7.07001 14.4688 7.59488C14.3032 7.84303 14.266 7.87911 14.1544 7.90018C14.0081 7.9278 13.8279 7.88166 13.8082 7.86203C13.8157 7.80592 13.9311 7.69915 14.2011 7.34248C14.6984 6.68563 15.1229 5.85707 15.1291 5.59127C15.133 5.42791 15.0069 5.45117 14.8584 5.51863C14.7259 5.57882 14.4562 5.79691 14.2778 5.98807C14.0681 6.21286 13.6029 7.03613 13.45 7.45314C13.3178 7.86203 13.2849 7.82413 13.0436 7.83334C12.8846 7.83942 12.5406 7.818 12.4357 7.79552C12.1865 7.75733 12.0623 7.75078 12.3206 7.58661C12.3368 7.56258 12.4942 7.42906 12.6704 7.28989C13.1226 6.93283 13.3513 6.73457 13.5643 6.51494C13.6661 6.41003 13.8236 6.25056 13.9143 6.16058C14.1013 5.97508 14.1579 5.9049 14.2201 5.78122C14.3344 5.5541 14.3742 5.38288 14.2398 5.3426C14.1257 5.30839 14.007 5.38202 13.3679 5.87655C12.8418 6.28361 12.7022 6.38366 12.6239 6.4095C12.5724 6.42652 12.5396 6.41122 12.5396 6.37015C12.5396 6.32661 12.6318 6.16615 12.7614 5.9839C13.2761 5.2604 13.4862 4.91774 13.4355 4.78636C13.3978 4.68873 13.2415 4.71897 13.0693 4.80462C12.7058 4.98544 12.2575 5.32713 11.9722 5.64072C11.5347 6.12166 11.2369 6.62619 11.0161 7.25997C10.8525 7.63299 10.8133 7.75078 10.7414 7.79005C10.591 7.80421 10.6237 7.71806 10.6171 7.65262C10.6098 7.57886 10.5892 7.55017 10.5717 7.47096C10.474 7.02888 10.3332 6.68362 10.0962 6.30455C9.72849 5.7165 9.30765 5.27288 8.73283 4.86739C8.48752 4.69435 8.35938 4.58479 8.28265 4.61622ZM11.8203 7.19454C11.8717 7.24593 11.7691 7.38022 11.6665 7.5037C11.5392 7.65676 11.3138 7.82032 11.2514 7.76387C11.1957 7.71343 11.3231 7.50604 11.4494 7.36541C11.5677 7.23363 11.7607 7.13488 11.8203 7.19454ZM20.3082 7.65917C20.3082 7.65917 20.1447 7.91895 20.1447 7.92747C20.1447 7.93598 20.0939 8.0006 20.0727 8.09107C20.0516 8.18153 20.0496 8.31244 20.0353 8.39106C20.0047 8.5586 20.0139 8.6015 19.9223 8.69478C19.8698 8.7221 19.8061 8.70098 19.7066 8.69412C19.565 8.68437 19.152 8.62774 19.079 8.6081C19.0243 8.59335 18.7388 8.58998 18.7388 8.56223C18.7388 8.52287 19.0737 8.3914 19.2554 8.29248C19.3632 8.23373 19.5604 8.12857 19.6935 8.04526C19.8972 7.91772 19.9125 7.90205 20.0531 7.80968C20.1484 7.74706 20.3082 7.65917 20.3082 7.65917ZM22.1457 8.45099C22.2223 8.52771 22.2895 8.54915 21.8966 8.75964C21.7662 8.82331 21.5441 8.91561 21.5114 8.89598C21.4656 8.85671 21.6189 8.68302 21.7242 8.58704C21.8677 8.45621 22.0751 8.38034 22.1457 8.45099Z" fill="black" stroke="black" style="fill:black;fill-opacity:1;stroke:black;stroke-opacity:1;" stroke-width="0.25"/>
</svg>
