<svg width="29" height="19" viewBox="0 0 29 19" fill="none" xmlns="http://www.w3.org/2000/svg">
<path fill-rule="evenodd" clip-rule="evenodd" d="M16.6129 1.01423C16.5889 1.02128 16.541 1.04086 16.5064 1.05772C16.421 1.0993 16.3283 1.09023 16.24 1.11772C15.5791 1.32357 15.0067 1.8142 14.3095 1.97268C14.1187 2.01606 13.9079 2.06684 13.7266 2.14224C13.6021 2.19403 13.4389 2.17336 13.3053 2.17845L13.1212 2.25566L12.2931 2.26188C11.7376 2.26605 11.4503 2.27175 11.4204 2.27918C11.3522 2.29611 11.2874 2.32781 11.2229 2.35519L10.8597 2.3606C10.5868 2.36467 10.3597 2.4515 10.0945 2.45933L9.89595 2.46518C9.47949 2.66248 8.93521 2.73745 8.66623 3.15988C8.64885 3.1872 8.60996 3.24083 8.57983 3.27907C8.43037 3.46874 8.38642 3.70616 8.29783 3.92466V4.41134C8.49933 4.91992 9.01022 6.1129 8.77425 6.62126C8.66437 6.85799 8.33562 7.17076 8.0502 7.11934C7.64643 7.04664 7.32329 6.56821 7.06745 6.30248C6.76352 5.98681 6.73532 5.95413 6.68248 5.85648C6.54304 5.59871 6.26659 5.44269 6.12045 5.18937C5.71779 4.49143 4.94766 3.85792 4.24926 3.49518C3.18332 2.94172 1.9131 4.45093 1.34697 5.17115C1.11891 5.4613 0.925007 5.94411 1.01003 6.3222C1.06446 6.56444 1.20714 6.80214 1.37475 6.9814C1.51158 7.12776 1.59922 7.3262 1.7746 7.42965C2.23031 7.69844 2.32974 8.32734 2.50586 8.77158L2.51162 9.86909C2.51365 10.2568 2.42391 10.7529 2.56974 11.1263C2.67343 11.3919 2.62269 11.7236 2.75272 11.9845C2.76494 12.009 2.78711 12.0766 2.80199 12.1348C2.92083 12.5993 3.23362 13.0051 3.35791 13.4645C3.38244 13.5552 3.41845 13.6415 3.45504 13.7277V14.5124C3.36689 14.7245 3.31755 14.9498 3.1793 15.1381C3.03294 15.3374 2.90378 15.521 2.72671 15.7007C2.45221 15.9793 2.41013 16.0173 2.32444 16.0636C2.04655 16.2138 1.84357 16.501 1.56497 16.6478C1.22698 16.8259 0.770855 17.4255 1.11715 17.7839C1.22458 17.8951 1.35543 17.901 1.48421 17.9695C1.68016 18.0737 1.9873 17.8661 2.18614 17.8157C2.41672 17.7573 2.64425 17.6539 2.85454 17.547C3.11097 17.4167 3.15406 17.3914 3.2213 17.3315C3.37842 17.1915 3.40818 17.1677 3.46957 17.133C3.87125 16.9058 4.19026 16.4412 4.50585 16.1172C4.9879 15.6224 5.4221 15.1796 5.47072 15.1332C5.69204 14.9218 5.99344 14.7701 6.26108 14.6339C6.58026 14.4715 6.65643 14.4366 6.73361 14.4175C6.78422 14.405 6.85753 14.3792 6.89653 14.3603C7.03112 14.2948 7.18675 14.3446 7.32093 14.2794C7.44954 14.2169 7.59014 14.2273 7.72165 14.1747C7.97083 14.0748 8.26951 14.0873 8.50958 13.9707C8.64206 13.9063 8.79624 13.9564 8.92873 13.892C9.01847 13.8484 9.03839 13.8429 9.1468 13.8321C9.28015 13.8188 9.39347 13.7486 9.5265 13.7334C10.042 13.6744 10.5336 13.3966 11.0464 13.3453C11.112 13.3388 11.1633 13.3268 11.2129 13.3064C11.4975 13.1895 11.8295 13.2063 12.1188 13.0869C12.2368 13.0382 12.3741 13.0785 12.4917 13.0297C12.6213 12.9758 12.7636 12.9814 12.8898 12.9297C12.9879 12.8895 13.0718 12.8651 13.1794 12.8589C13.4788 12.8417 13.7545 12.6814 14.0559 12.6698C14.3152 12.6599 14.69 12.5907 14.9228 12.4763H15.3974C15.4786 12.5152 15.5597 12.5524 15.6472 12.5753C16.0637 12.6842 16.4074 13.1325 16.5128 13.5341C16.5276 13.5901 16.5298 13.6478 16.5299 13.9711C16.53 14.2363 16.5265 14.3597 16.5177 14.3996C16.4841 14.553 16.3881 14.6957 16.2856 14.8104C15.9691 15.1646 15.6176 15.5436 15.194 15.7788C14.8666 15.9606 14.6203 16.2843 14.3236 16.5063C14.1372 16.6457 13.9613 16.8988 13.8966 17.1196C13.8381 17.3191 13.8626 17.5459 14.0082 17.697C14.1037 17.7961 14.2286 17.8482 14.3498 17.9092H14.4474C14.5707 17.9092 14.6635 17.8445 14.7804 17.8148C15.2903 17.6849 15.6976 17.1886 16.1536 16.9419C16.2959 16.8649 16.3934 16.7262 16.5342 16.6469C16.773 16.5124 16.961 16.3004 17.1959 16.1645C17.2709 16.1212 17.3235 16.0798 17.4276 15.9826C17.6691 15.7572 18.1311 15.4357 18.4748 15.6084C18.8494 15.7966 18.7073 16.438 18.5099 16.7042C18.4552 16.778 18.2849 17.1099 18.2594 17.1925C18.1756 17.4644 18.4639 17.7522 18.71 17.8051C18.742 17.8119 18.9923 17.8145 19.4461 17.8127L20.1336 17.8099C20.2215 17.7732 20.3069 17.7359 20.4028 17.7257C20.8263 17.6806 21.1752 17.2545 21.1746 16.8385C21.1742 16.4672 20.9179 16.1225 20.8932 15.7441C20.8846 15.6111 20.8758 15.5718 20.8302 15.4609C20.7754 15.3277 20.7956 15.1614 20.7907 15.0189L20.707 14.8104L20.7 14.6167C20.6748 13.9201 20.4437 13.1124 20.1365 12.4781C19.8785 11.9452 19.8694 11.925 19.8469 11.8357C19.8352 11.7892 19.8138 11.7267 19.7992 11.6966C19.6521 11.3922 19.7745 10.9945 19.9426 10.7277C20.0334 10.5838 20.2346 10.5157 20.3975 10.529C20.625 10.5477 20.8953 10.6948 21.0586 10.8526C21.1378 10.9292 21.2125 10.9884 21.265 11.0161C21.4018 11.0885 21.4959 11.2199 21.63 11.2965C22.0205 11.5192 22.2887 11.9511 22.6809 12.1736C22.8581 12.2741 22.9736 12.4526 23.1468 12.5589C23.1942 12.588 23.2801 12.6554 23.3377 12.7088C23.4862 12.8464 23.6586 12.9475 23.8041 13.0903C23.9908 13.2736 24.0299 13.3067 24.1103 13.35C24.4293 13.522 24.653 13.8532 24.9653 14.0319C25.0098 14.0574 25.082 14.1134 25.1396 14.1673C25.1919 14.2163 25.4771 14.4103 25.4527 14.1987C25.4412 14.0991 25.3999 14.0419 25.1543 13.7846C24.0696 12.6484 23.1068 11.3967 22.0121 10.2664C21.3274 9.5594 21.2802 9.51369 21.1769 9.45776C21.0297 9.37806 20.9313 9.23352 20.7831 9.15682C20.6432 9.08439 20.4986 8.97027 20.3731 8.87429C20.2447 8.77612 19.357 8.32066 19.2307 8.2882C18.8352 8.18647 18.4667 7.93991 18.0512 7.90251C17.9571 7.89403 17.9335 7.88729 17.8018 7.83119C17.6543 7.76833 17.4457 7.8013 17.286 7.797L17.102 7.72052C16.8026 7.70895 16.4307 7.64204 16.148 7.75917L16.056 7.79729L15.7848 7.80332C15.5485 7.80857 15.3534 7.89458 15.1213 7.90261C14.9328 7.90915 14.9323 7.90922 14.8453 7.94544C14.5304 8.07649 14.0149 8.06059 13.6956 7.99058C13.4965 7.94692 13.3078 7.78086 13.2178 7.60454C13.1342 7.44066 13.1314 7.30185 13.1309 7.12283C13.2009 6.9604 13.2814 6.80343 13.362 6.64609C13.5675 6.4357 13.7661 6.24324 14.0026 6.07114C14.1199 5.98579 14.1445 5.97251 14.8695 5.60192C15.3247 5.36927 15.4652 5.30178 15.5383 5.28082C15.6698 5.24309 15.7614 5.14451 15.8816 5.08486C15.9819 5.03514 16.122 4.95141 16.1673 4.91407C16.2162 4.87394 16.4494 4.65068 16.5281 4.60393C16.8478 4.41393 16.9989 4.05449 17.2061 3.76199C17.2911 3.64187 17.443 3.32752 17.4803 3.19446C17.5334 3.00461 17.5665 2.79662 17.642 2.6161C17.6632 2.56525 17.6639 2.55369 17.6667 2.15332C17.6687 1.86982 17.6662 1.72555 17.6584 1.68732C17.5973 1.38564 17.3915 1.09481 17.0885 1.01392C17.0184 0.9952 16.6768 0.995418 16.6129 1.01423ZM26.3856 14.8028C26.0713 14.8443 26.5434 15.132 26.6229 15.1946C26.689 15.2467 26.7773 15.298 26.988 15.4068C27.1408 15.4857 27.291 15.557 27.3218 15.5652C27.4799 15.6074 27.7795 15.6245 27.9038 15.5074C28.1669 15.2598 27.742 14.9877 27.5237 14.9125C27.3706 14.8599 27.1991 14.9138 27.0443 14.8503C26.8545 14.7726 26.5833 14.7766 26.3856 14.8028Z" fill="black" style="fill:black;fill-opacity:1;"/>
</svg>
