<svg width="31" height="47" viewBox="0 0 31 47" fill="none" xmlns="http://www.w3.org/2000/svg">
<path fill-rule="evenodd" clip-rule="evenodd" d="M12.504 1.00902C11.8149 1.06987 11.3127 1.17638 10.4394 1.44691C10.1091 1.54922 9.78258 1.62565 9.38564 1.69361C8.6418 1.82095 7.73112 1.89826 7.40809 1.86148C7.27544 1.84638 7.24315 1.83556 7.07558 1.75023C6.83956 1.63002 6.78237 1.61824 6.48166 1.62791C6.203 1.63686 6.14044 1.65274 5.96586 1.75887C5.71806 1.90948 5.61168 1.85232 5.55816 1.53976C5.51779 1.30409 5.44666 1.21407 5.30073 1.21396C5.15913 1.21385 4.99081 1.32996 4.721 1.61386C4.52134 1.82396 4.45592 1.91784 4.39285 2.08481C4.32383 2.26751 4.2812 2.34543 4.10646 2.60831C3.92966 2.8743 3.82549 3.07228 3.77548 3.23742C3.687 3.52951 3.7705 3.91675 4.0445 4.48514C4.22432 4.85815 4.34406 5.03215 4.59234 5.28127C4.91259 5.60259 4.91327 5.60492 4.93384 6.44C4.94174 6.76081 4.95566 7.17583 4.96477 7.36225C5.03628 8.82543 5.27486 10.5888 5.50545 11.3587C5.52883 11.4367 5.5831 11.6176 5.62605 11.7607C5.79458 12.3221 5.82317 12.5421 5.82174 13.2662C5.82055 13.8724 5.80738 14.0638 5.70684 14.9373C5.61632 15.7239 5.59617 15.9523 5.5879 16.2852C5.57758 16.7009 5.59271 16.805 5.71504 17.1604C5.96871 17.8973 6.29457 19.3147 6.29457 19.681C6.29457 19.9285 6.20323 20.186 5.9081 20.7704C5.2365 22.1002 4.37957 24.3052 3.82798 26.1226C3.57509 26.9559 3.46915 27.4282 3.45494 27.7858C3.44386 28.0647 3.4311 28.0956 3.25119 28.2802C3.01667 28.5208 2.97301 28.6544 2.99023 29.0785C3.00537 29.4517 3.16267 30.4808 3.29505 31.0728C3.60763 32.4706 4.32244 34.3733 4.96517 35.5185C5.02601 35.6269 5.20354 35.9111 5.3597 36.1502C5.71776 36.6982 5.7836 36.8202 5.78394 36.9363C5.78411 36.9917 5.77268 37.0463 5.75163 37.0906C5.69282 37.2145 5.02315 37.8877 3.95926 38.8926C2.06767 40.6792 1.86103 40.8966 1.6561 41.3158C1.57489 41.4819 1.52923 41.6436 1.4473 42.0553C1.33018 42.6437 1.24977 42.938 1.11414 43.2749C1.02071 43.507 0.99935 43.5984 1.00001 43.7636C1.00117 44.0544 1.13969 44.329 1.45831 44.6721C1.77113 45.0089 2.14085 45.2826 2.43438 45.3944C2.58326 45.4512 2.63118 45.4844 2.80298 45.6498C3.00744 45.8467 3.09847 45.8879 3.41023 45.9244C3.88852 45.9805 7.60936 45.9439 9.17118 45.8677C10.0626 45.8243 10.2333 45.8005 10.5341 45.6783C10.7159 45.6044 10.7796 45.5865 10.9314 45.5666C11.191 45.5326 11.297 45.5052 11.3723 45.4524C11.4966 45.3652 11.5727 45.2129 11.6545 44.8877C11.7727 44.4177 11.784 44.0263 11.6905 43.6486C11.6469 43.4721 11.5963 43.366 11.5123 43.2745C11.3503 43.0979 11.178 43.0371 9.99085 42.7376C9.51026 42.6163 9.06607 42.502 9.00378 42.4835C8.81032 42.426 8.75442 42.3327 8.83488 42.2014C8.85398 42.1703 9.13754 41.8801 9.46502 41.5566C10.8239 40.2142 11.2756 39.7354 11.6221 39.2706C11.8609 38.9502 11.9732 38.7354 12.046 38.4595C12.0937 38.2785 12.1154 38.2459 12.1876 38.2459C12.3079 38.2459 12.487 38.4834 12.5824 38.7693C12.6658 39.0193 12.7044 39.3268 12.7749 40.3032C12.9052 42.1086 13.0761 43.3372 13.2836 43.959C13.3369 44.1188 13.3754 44.1885 13.4614 44.2813C13.5494 44.3762 13.6461 44.4218 13.8508 44.4651C14.1668 44.5319 14.3316 44.6459 14.6587 45.024C14.8934 45.2952 15.0315 45.4225 15.1821 45.5062C15.2402 45.5385 15.3487 45.6036 15.4232 45.6508C15.6034 45.7651 15.6846 45.7917 15.9642 45.8281C17.1327 45.9801 20.656 46.0592 21.2834 45.9475C21.3751 45.9312 21.456 45.9017 21.5809 45.8388C21.7856 45.7359 21.8417 45.7229 22.1677 45.7029C22.4407 45.6861 22.5352 45.6646 22.6427 45.5951C22.7731 45.5108 22.8422 45.3651 22.8751 45.1052C22.9035 44.8805 22.8991 44.2425 22.8677 44.0411C22.8167 43.7146 22.725 43.506 22.5801 43.3873C22.2297 43.1003 21.3435 42.8965 20.4456 42.8965C19.9623 42.8965 19.5893 42.8465 19.4001 42.7562C19.1977 42.6597 19.0484 42.4504 18.9759 42.1617C18.8758 41.7624 18.8012 40.5009 18.752 38.372C18.6947 35.8924 18.6494 35.4519 18.3962 34.9116C18.2627 34.6268 18.1908 34.5337 17.8782 34.2416C17.7901 34.1592 17.6583 34.0209 17.5853 33.9341C17.0771 33.3307 16.25 32.2051 15.425 30.994C14.9724 30.3296 13.9156 28.7355 13.8755 28.6567C13.8233 28.5542 13.8157 28.4523 13.853 28.3533C13.9083 28.2067 15.089 26.1565 15.8595 24.8693C16.2527 24.2123 16.5245 23.476 16.9039 22.0395C17.2025 20.9092 17.3715 20.4811 17.6664 20.1082C17.7973 19.9428 18.1617 19.5826 18.3251 19.4571C18.514 19.3122 18.6202 19.2615 18.7541 19.2526C18.8595 19.2455 18.8711 19.2483 19.0226 19.3192C19.2435 19.4223 19.3758 19.454 19.5865 19.454C19.7968 19.454 19.9004 19.4286 20.0694 19.3356C20.3027 19.2071 20.4163 19.1836 20.9483 19.154C21.4707 19.1249 22.1307 19.0381 23.2217 18.8549C24.4035 18.6566 25.0742 18.5713 25.6967 18.5401C26.2078 18.5146 26.3357 18.4748 26.5623 18.2709C26.7115 18.1366 26.897 18.0396 27.119 17.9797C27.4951 17.8783 27.7659 17.7781 28.3331 17.5307C28.8599 17.3008 29.1537 17.1966 29.4228 17.1443C29.7775 17.0753 29.9177 17.0063 29.9758 16.8723C30.029 16.7498 30.0039 16.6757 29.8043 16.3658C29.6207 16.0808 29.5849 15.9715 29.5712 15.6546C29.5565 15.3164 29.5363 15.281 29.2456 15.0858C29.0543 14.9573 28.9417 14.8466 28.809 14.6561C28.7496 14.5709 28.6791 14.4756 28.6524 14.4445C28.5825 14.3631 28.4448 14.2772 28.2793 14.2119C28.0771 14.132 28.0265 14.0829 27.9253 13.868C27.8002 13.6024 27.6712 13.4936 27.3644 13.395C26.8803 13.2395 25.7233 13.1631 25.1704 13.2501C24.7705 13.3131 24.4435 13.4349 23.6238 13.8259C23.1162 14.068 22.9003 14.1633 22.6971 14.2347C22.4042 14.3376 22.3033 14.3538 21.9613 14.3525C21.5107 14.3509 21.049 14.2942 20.6853 14.1961C20.5748 14.1662 20.3555 14.1164 20.1982 14.0853C19.8687 14.0203 19.6249 13.9599 19.3398 13.8726C18.8001 13.7074 18.1233 13.5909 17.5149 13.5587C17.163 13.5401 17.0167 13.5188 16.7607 13.4492C16.3817 13.3461 15.9287 13.1535 15.0404 12.7179C14.3156 12.3624 13.7339 12.0382 13.6264 11.9297C13.5084 11.8106 13.5067 11.7087 13.6192 11.4933C13.8376 11.0748 14.3649 10.367 15.0638 9.55424C15.507 9.03895 15.7205 8.78529 16.0131 8.42639C16.4833 7.84983 16.5421 7.78212 16.7473 7.58099C17.0074 7.32596 17.2447 7.13853 17.6169 6.89422C17.9453 6.67863 18.1393 6.53403 18.314 6.37475C18.7036 6.01928 18.9385 5.61558 19.0282 5.14727C19.0587 4.98763 19.0646 4.92831 19.093 4.48514C19.1208 4.05169 19.1488 3.70363 19.2025 3.12147C19.2434 2.67828 19.2443 2.49408 19.2063 2.37537C19.178 2.28699 19.0783 2.18072 18.9727 2.12639C18.8094 2.04232 18.6716 2.01408 18.4196 2.01303C18.0851 2.01164 17.8369 2.049 16.8189 2.25403C15.7238 2.4746 15.4813 2.51171 15.1254 2.51335C14.8353 2.51467 14.8043 2.5057 14.6488 2.37523C14.5326 2.27769 14.4021 2.20229 14.2054 2.11898C13.9486 2.01021 13.873 1.97078 13.8098 1.91259C13.7087 1.81953 13.6949 1.77198 13.6949 1.51878C13.6949 1.29645 13.6947 1.29526 13.6485 1.22713C13.5862 1.13533 13.447 1.06505 13.2618 1.03199C13.0931 1.00185 12.7151 0.9904 12.504 1.00902ZM25.4765 7.62196C24.9511 7.67771 24.2332 7.79982 23.2449 8.0016C22.2246 8.20988 22.1258 8.24348 21.796 8.4943C21.0525 9.05967 19.1621 10.8099 18.0015 12.0073C17.3777 12.651 17.2801 12.7768 17.317 12.8897C17.3439 12.9718 17.3967 12.995 17.5803 13.0054C17.7634 13.0158 17.7923 13.0267 17.9163 13.1325C18.0234 13.2238 18.054 13.2374 18.2878 13.2974C18.4155 13.3302 18.6354 13.4077 18.863 13.5001C19.0657 13.5824 19.322 13.6783 19.4326 13.7133C19.7539 13.815 20.2734 13.9646 20.3964 13.9909C20.7036 14.0566 20.9347 13.9887 21.273 13.7336C21.5785 13.5032 21.6454 13.486 21.8569 13.5834C21.9585 13.6301 21.9933 13.6389 22.0501 13.6324C22.2201 13.6128 22.3416 13.4557 22.606 12.9135C22.7739 12.5692 22.814 12.4994 22.8934 12.4128C23.0421 12.2508 23.1785 12.1995 23.6006 12.1471C24.2217 12.07 24.6587 11.9581 25.1112 11.7602C25.5162 11.583 25.8463 11.3639 26.1075 11.0991C26.3913 10.8112 26.4893 10.6329 26.563 10.2709C26.6164 10.008 26.6533 9.91673 26.788 9.71475C26.8484 9.62412 26.9076 9.52618 26.9195 9.49711C26.9518 9.41829 26.9461 9.29945 26.9044 9.18675C26.846 9.02853 26.8417 8.97272 26.8795 8.86623C26.9688 8.61467 26.9679 8.58399 26.8662 8.43536C26.7823 8.3127 26.763 8.26924 26.7342 8.13889C26.6906 7.94183 26.6534 7.86102 26.5692 7.78076C26.4316 7.6496 26.3063 7.61465 25.9437 7.60634C25.7856 7.6027 25.5993 7.60894 25.4765 7.62196Z" fill="black" style="fill:black;fill-opacity:1;"/>
</svg>
