<svg width="196" height="97" viewBox="0 0 196 97" fill="none" xmlns="http://www.w3.org/2000/svg">
<path d="M25.1708 81.0366L3.5623 94.43C2.00559 95.3926 0 94.273 0 92.4387V16.4082C0 15.5944 0.420063 14.8425 1.10781 14.417L21.6085 1.70527C23.1652 0.742703 25.1708 1.86226 25.1708 3.69651V81.0366Z" fill="black" style="fill:black;fill-opacity:1;"/>
<path d="M62.3095 81.0353L28.408 95.2796C26.8677 95.9241 25.171 94.7921 25.171 93.119V15.1014L59.0726 0.85699C60.6128 0.212524 62.3095 1.34447 62.3095 3.01761V81.0353Z" fill="black" style="fill:black;fill-opacity:1;"/>
<path d="M116.366 81.0359L65.2908 95.7801C63.8 96.2098 62.3092 95.0861 62.3092 93.5286V15.102L113.388 0.357747C114.879 -0.0718969 116.37 1.05179 116.37 2.60925V81.0359H116.366Z" fill="black" style="fill:black;fill-opacity:1;"/>
<path d="M194.119 81.4077L119.146 96.0941C117.705 96.375 116.362 95.2678 116.362 93.7971V15.102L193.225 0.0437657C194.667 -0.237156 196.009 0.870005 196.009 2.34071V79.1066C196.009 80.2262 195.219 81.1887 194.123 81.4036L194.119 81.4077Z" fill="black" style="fill:black;fill-opacity:1;"/>
<path d="M31.3461 27.2264H35.3862L30.0324 46.3043H26.2395L23.9415 35.1459L23.2702 31.4568L22.5989 35.1459L20.301 46.3043H16.611L11.2161 27.2264H15.4373L17.9535 38.1493L18.4972 41.1899L19.0531 38.2113L21.1946 27.2223H25.387L27.6438 38.1452L28.2245 41.1857L28.8052 38.2609L31.3461 27.2182V27.2264Z" fill="#CBC7BE" style="fill:#CBC7BE;fill:color(display-p3 0.7961 0.7804 0.7451);fill-opacity:1;"/>
<path d="M48.7532 33.982C49.9393 35.4733 50.5323 37.2374 50.5323 39.274C50.5323 41.3107 49.9393 43.116 48.7532 44.5868C47.5671 46.0575 45.7633 46.7928 43.3459 46.7928C40.9285 46.7928 39.1247 46.0575 37.9386 44.5868C36.7526 43.116 36.1595 41.3438 36.1595 39.274C36.1595 37.2043 36.7526 35.4733 37.9386 33.982C39.1247 32.4906 40.9285 31.7429 43.3459 31.7429C45.7633 31.7429 47.5671 32.4906 48.7532 33.982ZM43.3336 34.8619C42.2587 34.8619 41.4309 35.242 40.8502 36.0063C40.2696 36.7705 39.9813 37.8612 39.9813 39.274C39.9813 40.6869 40.2737 41.7817 40.8502 42.5501C41.4309 43.3185 42.2587 43.7027 43.3336 43.7027C44.4084 43.7027 45.2362 43.3185 45.8128 42.5501C46.3893 41.7817 46.6776 40.691 46.6776 39.274C46.6776 37.857 46.3893 36.7705 45.8128 36.0063C45.2362 35.242 44.4126 34.8619 43.3336 34.8619Z" fill="#CBC7BE" style="fill:#CBC7BE;fill:color(display-p3 0.7961 0.7804 0.7451);fill-opacity:1;"/>
<path d="M60.2351 35.6013C58.7566 35.6013 57.76 36.0846 57.2535 37.0513C56.9693 37.5966 56.8293 38.4311 56.8293 39.5631V46.3052H53.127V32.1972H56.6357V34.6552C57.204 33.7133 57.6982 33.073 58.1183 32.7259C58.806 32.1476 59.6997 31.8584 60.8034 31.8584C60.8734 31.8584 60.9311 31.8584 60.9764 31.8667C61.0217 31.8749 61.1287 31.8791 61.2935 31.8873V35.6674C61.0628 35.6426 60.8569 35.626 60.6757 35.6137C60.4945 35.6054 60.3504 35.6013 60.2351 35.6013Z" fill="#CBC7BE" style="fill:#CBC7BE;fill:color(display-p3 0.7961 0.7804 0.7451);fill-opacity:1;"/>
<path d="M63.5265 27.2272H67.2041V46.3051H63.5265V27.2272Z" fill="#CBC7BE" style="fill:#CBC7BE;fill:color(display-p3 0.7961 0.7804 0.7451);fill-opacity:1;"/>
<path d="M83.5903 27.2525V46.3055H80.0157V44.3515C79.4927 45.1901 78.8914 45.7974 78.2201 46.1775C77.5489 46.5576 76.7128 46.7476 75.7162 46.7476C74.073 46.7476 72.6893 46.0825 71.5691 44.7481C70.4448 43.4137 69.8848 41.7034 69.8848 39.6171C69.8848 37.2087 70.4366 35.3166 71.5444 33.9367C72.6481 32.5569 74.1266 31.867 75.9757 31.867C76.8282 31.867 77.5859 32.0529 78.2448 32.4289C78.9079 32.8048 79.4433 33.3253 79.8592 33.9905V27.2607H83.5862L83.5903 27.2525ZM73.6818 39.3445C73.6818 40.6458 73.9413 41.6869 74.456 42.4635C74.9626 43.2485 75.7368 43.6409 76.7787 43.6409C77.8207 43.6409 78.6114 43.2526 79.155 42.4759C79.6986 41.6993 79.9663 40.6954 79.9663 39.4602C79.9663 37.7333 79.5339 36.5022 78.6649 35.7586C78.1295 35.3083 77.5118 35.0852 76.8076 35.0852C75.7327 35.0852 74.942 35.4942 74.4396 36.3081C73.9371 37.1219 73.6859 38.134 73.6859 39.3445H73.6818Z" fill="#CBC7BE" style="fill:#CBC7BE;fill:color(display-p3 0.7961 0.7804 0.7451);fill-opacity:1;"/>
<path d="M98.211 46.3051H94.5087V27.2272H100.291L103.75 42.2276L107.181 27.2272H112.897V46.3051H109.194V33.3992C109.194 33.0274 109.199 32.5069 109.207 31.8376C109.215 31.1684 109.219 30.652 109.219 30.2926L105.62 46.3051H101.761L98.1863 30.2926C98.1863 30.6561 98.1904 31.1684 98.1986 31.8376C98.2069 32.5069 98.211 33.0274 98.211 33.3992V46.3051Z" fill="#CBC7BE" style="fill:#CBC7BE;fill:color(display-p3 0.7961 0.7804 0.7451);fill-opacity:1;"/>
<path d="M128.019 33.982C129.205 35.4733 129.798 37.2374 129.798 39.274C129.798 41.3107 129.205 43.116 128.019 44.5868C126.833 46.0575 125.029 46.7928 122.612 46.7928C120.194 46.7928 118.39 46.0575 117.204 44.5868C116.018 43.116 115.425 41.3438 115.425 39.274C115.425 37.2043 116.018 35.4733 117.204 33.982C118.39 32.4906 120.194 31.7429 122.612 31.7429C125.029 31.7429 126.833 32.4906 128.019 33.982ZM122.599 34.8619C121.524 34.8619 120.697 35.242 120.116 36.0063C119.535 36.7705 119.247 37.8612 119.247 39.274C119.247 40.6869 119.539 41.7817 120.116 42.5501C120.697 43.3185 121.524 43.7027 122.599 43.7027C123.674 43.7027 124.502 43.3185 125.079 42.5501C125.655 41.7817 125.943 40.691 125.943 39.274C125.943 37.857 125.655 36.7705 125.079 36.0063C124.502 35.242 123.674 34.8619 122.599 34.8619Z" fill="#CBC7BE" style="fill:#CBC7BE;fill:color(display-p3 0.7961 0.7804 0.7451);fill-opacity:1;"/>
<path d="M131.049 32.1978H135.18L138.108 42.6043L141.102 32.1978H145.051L139.982 46.3059H136.098L131.053 32.1978H131.049Z" fill="#CBC7BE" style="fill:#CBC7BE;fill:color(display-p3 0.7961 0.7804 0.7451);fill-opacity:1;"/>
<path d="M150.907 27.1117V30.5158H147.18V27.1117H150.907ZM150.907 32.1972V46.3052H147.18V32.1972H150.907Z" fill="#CBC7BE" style="fill:#CBC7BE;fill:color(display-p3 0.7961 0.7804 0.7451);fill-opacity:1;"/>
<path d="M166.507 42.165C166.412 43.0036 165.98 43.8505 165.205 44.714C164.003 46.0855 162.314 46.7713 160.148 46.7713C158.357 46.7713 156.779 46.1929 155.412 45.0362C154.045 43.8795 153.361 41.9998 153.361 39.393C153.361 36.9514 153.979 35.08 155.215 33.7746C156.45 32.4732 158.052 31.8205 160.021 31.8205C161.19 31.8205 162.244 32.0394 163.183 32.4815C164.122 32.9235 164.897 33.6176 165.506 34.5636C166.058 35.4022 166.412 36.3731 166.577 37.4761C166.672 38.1247 166.709 39.0542 166.692 40.2729H157.068C157.121 41.6899 157.562 42.6814 158.398 43.2515C158.905 43.6068 159.514 43.7803 160.231 43.7803C160.988 43.7803 161.602 43.5655 162.076 43.1317C162.335 42.9004 162.562 42.574 162.759 42.1609H166.515L166.507 42.165ZM162.87 37.8396C162.809 36.8647 162.516 36.1252 161.985 35.6212C161.458 35.1172 160.799 34.8652 160.016 34.8652C159.164 34.8652 158.505 35.1337 158.036 35.6666C157.566 36.1996 157.274 36.9267 157.15 37.8396H162.866H162.87Z" fill="#CBC7BE" style="fill:#CBC7BE;fill:color(display-p3 0.7961 0.7804 0.7451);fill-opacity:1;"/>
<path d="M77.883 67.9241C78.822 67.9241 79.5798 67.8208 80.1687 67.6143C81.2765 67.2177 81.8324 66.4782 81.8324 65.3999C81.8324 64.772 81.5565 64.2845 81.0047 63.9375C80.4528 63.6029 79.588 63.3013 78.4102 63.0452L76.3963 62.5907C74.4196 62.1404 73.0482 61.653 72.2945 61.1283C71.0138 60.2483 70.3713 58.8727 70.3713 56.9971C70.3713 55.2868 70.9891 53.8698 72.2287 52.7378C73.4682 51.6059 75.2885 51.044 77.6854 51.044C79.6909 51.044 81.4 51.577 82.8126 52.6428C84.2293 53.7087 84.9706 55.2537 85.0406 57.2821H81.2229C81.1529 56.1337 80.6546 55.3198 79.728 54.8365C79.1103 54.5184 78.3402 54.3573 77.4177 54.3573C76.3922 54.3573 75.5768 54.5638 74.9673 54.9769C74.3578 55.3901 74.053 55.9684 74.053 56.712C74.053 57.3937 74.3537 57.9018 74.9549 58.2406C75.3421 58.4637 76.1698 58.7281 77.4341 59.0296L80.7123 59.8187C82.1496 60.1657 83.2327 60.6243 83.9657 61.2026C85.1023 62.0991 85.6707 63.4004 85.6707 65.0984C85.6707 66.7963 85.0076 68.2877 83.6774 69.4403C82.3472 70.5929 80.4693 71.1671 78.0436 71.1671C75.618 71.1671 73.6165 70.6011 72.1998 69.465C70.779 68.329 70.0707 66.7715 70.0707 64.7844H73.8636C73.983 65.6561 74.2219 66.3088 74.5719 66.7385C75.2185 67.5234 76.3222 67.9158 77.8871 67.9158L77.883 67.9241Z" fill="#CBC7BE" style="fill:#CBC7BE;fill:color(display-p3 0.7961 0.7804 0.7451);fill-opacity:1;"/>
<path d="M100.348 66.5397C100.253 67.3784 99.8208 68.2253 99.0465 69.0887C97.844 70.4602 96.1555 71.146 93.9893 71.146C92.202 71.146 90.6206 70.5677 89.2533 69.4109C87.886 68.2542 87.2024 66.3745 87.2024 63.7677C87.2024 61.3262 87.8201 59.4547 89.0556 58.1493C90.2911 56.8479 91.8931 56.1952 93.8616 56.1952C95.0312 56.1952 96.0855 56.4142 97.0245 56.8562C97.9634 57.2983 98.7377 57.9923 99.3472 58.9383C99.899 59.777 100.253 60.7478 100.418 61.8508C100.513 62.4994 100.55 63.4289 100.533 64.6477H90.9088C90.9582 66.0647 91.403 67.0561 92.239 67.6262C92.7456 67.9815 93.3592 68.155 94.0717 68.155C94.8294 68.155 95.443 67.9402 95.9166 67.5064C96.1761 67.2751 96.4026 66.9487 96.6003 66.5356H100.356L100.348 66.5397ZM96.7115 62.2144C96.6497 61.2394 96.3573 60.4999 95.826 59.9959C95.2989 59.4919 94.64 59.2399 93.8575 59.2399C93.005 59.2399 92.3461 59.5084 91.8766 60.0414C91.4071 60.5743 91.1147 61.3014 90.9912 62.2144H96.7073H96.7115Z" fill="#CBC7BE" style="fill:#CBC7BE;fill:color(display-p3 0.7961 0.7804 0.7451);fill-opacity:1;"/>
<path d="M103.083 51.602H106.76V70.6798H103.083V51.602Z" fill="#CBC7BE" style="fill:#CBC7BE;fill:color(display-p3 0.7961 0.7804 0.7451);fill-opacity:1;"/>
<path d="M122.389 66.5397C122.295 67.3784 121.862 68.2253 121.088 69.0887C119.885 70.4602 118.197 71.146 116.031 71.146C114.243 71.146 112.662 70.5677 111.295 69.4109C109.928 68.2542 109.244 66.3745 109.244 63.7677C109.244 61.3262 109.862 59.4547 111.097 58.1493C112.333 56.8479 113.935 56.1952 115.903 56.1952C117.073 56.1952 118.127 56.4142 119.066 56.8562C120.005 57.2983 120.779 57.9923 121.389 58.9383C121.941 59.777 122.295 60.7478 122.459 61.8508C122.554 62.4994 122.591 63.4289 122.575 64.6477H112.95C113 66.0647 113.445 67.0561 114.281 67.6262C114.787 67.9815 115.401 68.155 116.113 68.155C116.871 68.155 117.485 67.9402 117.958 67.5064C118.218 67.2751 118.444 66.9487 118.642 66.5356H122.398L122.389 66.5397ZM118.749 62.2144C118.687 61.2394 118.395 60.4999 117.863 59.9959C117.336 59.4919 116.677 59.2399 115.895 59.2399C115.042 59.2399 114.383 59.5084 113.914 60.0414C113.445 60.5743 113.152 61.3014 113.029 62.2144H118.745H118.749Z" fill="#CBC7BE" style="fill:#CBC7BE;fill:color(display-p3 0.7961 0.7804 0.7451);fill-opacity:1;"/>
<path d="M137.215 61.6326H133.447C133.377 61.108 133.2 60.6329 132.92 60.2074C132.508 59.6373 131.865 59.3522 130.996 59.3522C129.757 59.3522 128.908 59.9678 128.455 61.203C128.217 61.8598 128.093 62.7315 128.093 63.818C128.093 64.9045 128.212 65.6853 128.455 66.3174C128.896 67.4907 129.72 68.0773 130.935 68.0773C131.795 68.0773 132.405 67.846 132.767 67.3791C133.13 66.9123 133.348 66.3091 133.426 65.5655H137.182C137.096 66.6892 136.692 67.7509 135.967 68.7507C134.814 70.366 133.105 71.1716 130.844 71.1716C128.583 71.1716 126.915 70.4982 125.849 69.1514C124.782 67.8046 124.247 66.0571 124.247 63.9089C124.247 61.4839 124.835 59.6001 126.013 58.2533C127.191 56.9065 128.818 56.2332 130.889 56.2332C132.652 56.2332 134.097 56.6298 135.218 57.4229C136.342 58.2161 137.005 59.6207 137.211 61.6285L137.215 61.6326Z" fill="#CBC7BE" style="fill:#CBC7BE;fill:color(display-p3 0.7961 0.7804 0.7451);fill-opacity:1;"/>
<path d="M146.18 68.0519V70.8074L144.438 70.8735C142.7 70.9355 141.514 70.6339 140.875 69.9688C140.464 69.5474 140.258 68.8947 140.258 68.0148V59.331H138.297V56.7035H140.258V52.7665H143.898V56.7035H146.184V59.331H143.898V66.7878C143.898 67.3662 143.972 67.7256 144.116 67.8702C144.265 68.0106 144.709 68.085 145.459 68.085C145.57 68.085 145.69 68.085 145.813 68.0767C145.937 68.0685 146.06 68.0643 146.18 68.0561V68.0519Z" fill="#CBC7BE" style="fill:#CBC7BE;fill:color(display-p3 0.7961 0.7804 0.7451);fill-opacity:1;"/>
<path d="M152.323 51.4864V54.8905H148.592V51.4864H152.323ZM152.323 56.5719V70.6799H148.592V56.5719H152.323Z" fill="#CBC7BE" style="fill:#CBC7BE;fill:color(display-p3 0.7961 0.7804 0.7451);fill-opacity:1;"/>
<path d="M167.615 58.3603C168.801 59.8517 169.394 61.6157 169.394 63.6524C169.394 65.6891 168.801 67.4944 167.615 68.9651C166.429 70.4358 164.625 71.1712 162.207 71.1712C159.79 71.1712 157.986 70.4358 156.8 68.9651C155.614 67.4944 155.021 65.7221 155.021 63.6524C155.021 61.5827 155.614 59.8517 156.8 58.3603C157.986 56.869 159.79 56.1212 162.207 56.1212C164.625 56.1212 166.429 56.869 167.615 58.3603ZM162.195 59.2403C161.12 59.2403 160.292 59.6203 159.712 60.3846C159.131 61.1489 158.839 62.2395 158.839 63.6524C158.839 65.0653 159.131 66.16 159.712 66.9284C160.292 67.6968 161.12 68.081 162.195 68.081C163.27 68.081 164.098 67.6968 164.674 66.9284C165.251 66.16 165.539 65.0694 165.539 63.6524C165.539 62.2354 165.251 61.1489 164.674 60.3846C164.098 59.6203 163.274 59.2403 162.195 59.2403Z" fill="#CBC7BE" style="fill:#CBC7BE;fill:color(display-p3 0.7961 0.7804 0.7451);fill-opacity:1;"/>
<path d="M178.649 59.3026C177.401 59.3026 176.545 59.8314 176.079 60.8931C175.84 61.455 175.717 62.1697 175.717 63.0414V70.6799H172.052V56.5967H175.601V58.654C176.075 57.9311 176.52 57.4064 176.944 57.0883C177.702 56.5182 178.661 56.2332 179.823 56.2332C181.276 56.2332 182.467 56.6132 183.389 57.3775C184.312 58.1418 184.777 59.4059 184.777 61.1782V70.6799H181.009V62.0995C181.009 61.3558 180.91 60.7899 180.712 60.3891C180.35 59.6662 179.662 59.3026 178.649 59.3026Z" fill="#CBC7BE" style="fill:#CBC7BE;fill:color(display-p3 0.7961 0.7804 0.7451);fill-opacity:1;"/>
</svg>
