<svg width="165" height="88" viewBox="0 0 165 88" fill="none" xmlns="http://www.w3.org/2000/svg">
<path d="M114.198 55.7H123.846V64.7004H114.198V55.7ZM122.134 61.6393V58.8067H115.91V61.6393H122.134ZM118.101 44.4609H119.943V49.6236H121.766C122.152 48.0702 122.484 46.4712 122.778 44.7351L124.472 46.1971C124.233 47.4763 123.975 48.6185 123.681 49.6236H126.848V59.2179H125.117V53.3699H112.927V59.2636H111.178V49.6236H114.455C114.179 48.4357 113.866 47.3392 113.535 46.3341L115.192 44.8264C115.597 46.1514 115.965 47.7504 116.297 49.6236H118.101V44.4609ZM124.933 66.6649V79.3203H123.202V70.5027H114.86V79.8229H113.13V66.6649H124.933ZM120.219 78.7264C122.649 79.9599 124.841 81.4676 126.829 83.2951L125.835 87.0871C123.717 84.8941 121.545 83.2037 119.335 82.0158L120.219 78.7264ZM118.249 71.919L119.998 72.2845C119.74 77.4928 119.206 80.9193 118.359 82.6098C117.438 84.8028 115.284 86.1734 111.877 86.813L111.178 82.8839C114.05 82.6098 115.928 81.6503 116.831 80.0056C117.641 78.4522 118.101 75.7567 118.249 71.919Z" fill="black" style="fill:black;fill-opacity:1;"/>
<path d="M92.4696 56.1578H99.5219C99.6324 53.7364 99.7061 51.1779 99.7245 48.528V44.5532H101.492V47.5229C101.492 50.5383 101.419 53.4165 101.271 56.1578H108.747V60.361H101.713C103.002 70.1381 105.488 77.6765 109.134 83.0219L108.047 86.5398C104.512 81.1487 102.026 73.6103 100.627 63.9246C99.4115 74.387 96.9256 82.0624 93.1877 86.951L92.0645 83.296C95.8576 78.7273 98.2514 71.0518 99.2273 60.361H92.4696V56.1578Z" fill="black" style="fill:black;fill-opacity:1;"/>
<path d="M148.962 1.37055H157.101V14.163H153.602L153.823 16.4473H157.948V19.7825H148.004V16.4473H152.184L151.963 14.163H148.962V1.37055ZM155.517 11.3304V9.13738H150.527V11.3304H155.517ZM150.527 6.5789H155.517V4.29453H150.527V6.5789ZM149.109 21.9298H156.99V31.2043H153.878V37.966C153.878 40.4331 153.344 41.6667 152.313 41.6667H151.024L150.674 37.8746C151.061 38.0574 151.429 38.1488 151.779 38.1488C152.055 38.1488 152.203 37.7376 152.203 37.0066V31.2043H149.109V21.9298ZM155.388 28.189V24.8538H150.711V28.189H155.388ZM149.478 32.1637L150.785 33.7171C150.306 36.6411 149.735 39.1996 149.072 41.3926L147.82 39.1539C148.465 37.1893 149.017 34.8593 149.478 32.1637ZM155.904 32.2551C156.567 34.5395 157.064 36.5954 157.414 38.3315L156.18 40.4788C155.812 38.56 155.333 36.4127 154.707 34.0826L155.904 32.2551ZM162.993 0.0913086L164.061 3.10666C162.588 6.80733 160.765 9.86837 158.592 12.2898L157.874 8.58913C159.955 6.39615 161.667 3.56354 162.993 0.0913086ZM163.49 12.107L164.558 15.1224C163.03 19.3713 161.17 22.8892 158.961 25.6305L158.242 21.9755C160.378 19.4627 162.128 16.1732 163.49 12.107ZM163.656 23.8944L165 26.4072C163.49 33.6257 161.225 38.8341 158.242 41.9865L157.543 38.0117C160.249 35.1334 162.293 30.4276 163.656 23.8944Z" fill="black" style="fill:black;fill-opacity:1;"/>
<path d="M132.722 19.6912V25.4021H136.81V19.6912H132.722ZM136.81 29.4683H132.722V33.0776H130.973V5.89365H136.81V0H138.559V5.89365H144.507V29.4683H138.559V34.0827C138.559 36.23 138.946 37.3265 139.719 37.3265H143.733C144.102 37.3265 144.396 37.0523 144.58 36.5955C144.728 36.1386 144.838 34.4482 144.893 31.6156L146.569 33.0319C146.458 36.961 146.237 39.3367 145.906 40.2048C145.556 40.9814 144.93 41.3926 144.028 41.3926H139.314C137.638 41.3926 136.81 39.154 136.81 34.7223V29.4683ZM138.559 25.4021H142.776V19.6912H138.559V25.4021ZM142.776 15.7164V10.0055H138.559V15.7164H142.776ZM136.81 10.0055H132.722V15.7164H136.81V10.0055Z" fill="black" style="fill:black;fill-opacity:1;"/>
<path d="M113.13 1.41602H126.093V20.3305H122.815C123.994 23.3916 125.78 25.8587 128.174 27.6862L127.419 31.5239C125.798 29.9705 124.436 28.1887 123.331 26.1785V42.169H121.563V24.7165H122.576C121.913 23.3002 121.379 21.8382 120.937 20.3305H118.212C117.715 21.8839 117.144 23.3459 116.481 24.6708H117.88C117.88 28.3258 117.659 31.4782 117.217 34.0367C116.684 37.3262 115.431 40.0217 113.461 42.2147L112.301 38.7425C113.921 37.0977 114.989 35.0418 115.505 32.6204C115.873 30.7472 116.076 28.3258 116.113 25.4018C114.934 27.5491 113.535 29.468 111.878 31.1127L110.938 27.3207C113.332 25.4475 115.118 23.1175 116.297 20.3305H113.13V1.41602ZM124.417 16.5385V12.6094H120.421V16.5385H124.417ZM118.727 16.5385V12.6094H114.805V16.5385H118.727ZM114.805 9.04579H118.727V5.25375H114.805V9.04579ZM120.421 5.25375V9.04579H124.417V5.25375H120.421Z" fill="black" style="fill:black;fill-opacity:1;"/>
<path d="M92.8008 10.4174H95.0104V0.457572H96.7965V10.4174H100.111V0.0463867H101.823V10.4174H105.156V0.0463867H106.869V10.4174H109.502V14.5749H106.869V28.9664H100.111V14.5749H96.7965V35.9566H108.876V40.3882H95.0104V14.5749H92.8008V10.4174ZM101.823 14.5749V24.7632H105.156V14.5749H101.823Z" fill="black" style="fill:black;fill-opacity:1;"/>
<path d="M75.9937 73.0535C77.2777 73.0535 78.3202 72.6054 79.1212 71.709C80.6408 69.991 81.4005 66.7977 81.4005 62.1291C81.4005 59.4027 81.0236 57.2925 80.2697 55.7986C79.5158 54.342 78.332 53.0535 76.7182 51.933L73.9618 49.9722C71.2525 48.0301 69.3795 45.9199 68.3429 43.6416C66.5878 39.8321 65.7102 33.875 65.7102 25.7704C65.7102 18.3754 66.5583 12.2316 68.2546 7.33897C69.9508 2.44632 72.4422 0 75.7287 0C78.4733 0 80.8116 2.3156 82.7434 6.94681C84.687 11.5407 85.706 18.226 85.8002 27.0029H80.5701C80.4758 22.0356 79.7926 18.5062 78.5204 16.4146C77.6723 15.0327 76.618 14.3418 75.3576 14.3418C73.9559 14.3418 72.8368 15.2382 72.0005 17.0309C71.1641 18.8236 70.7459 21.326 70.7459 24.5379C70.7459 27.4885 71.1582 29.692 71.9828 31.1486C72.5129 32.1197 73.6437 33.2588 75.3753 34.566L79.8633 37.9834C81.8305 39.4773 83.3147 41.4754 84.316 43.9778C85.8709 47.862 86.6483 53.483 86.6483 60.8406C86.6483 68.385 85.7354 74.6595 83.9096 79.6642C82.0955 84.6316 79.5276 87.1152 76.2058 87.1152C72.8133 87.1152 70.1452 84.6689 68.2016 79.7763C66.2579 74.8463 65.2861 68.0862 65.2861 59.4961H70.4809C70.6458 63.2683 70.9698 66.0881 71.4527 67.9555C72.3362 71.3542 73.8499 73.0535 75.9937 73.0535Z" fill="black" style="fill:black;fill-opacity:1;"/>
<path d="M41.3816 84.9866H36.3105V2.40918H44.2264L48.9618 67.3394L53.6618 2.40918H61.4893V84.9866H56.4182V29.132C56.4182 27.526 56.4241 25.2851 56.4359 22.4093C56.4477 19.4961 56.4536 17.2552 56.4536 15.6865L51.5238 84.9866H46.2407L41.3463 15.6865C41.3463 17.2552 41.3522 19.4961 41.364 22.4093C41.3757 25.2851 41.3816 27.526 41.3816 29.132V84.9866Z" fill="black" style="fill:black;fill-opacity:1;"/>
<path d="M27.5641 2.40918H33.0946L25.7618 84.9866H20.5671L17.4219 36.695L16.5031 20.7286L15.5843 36.695L12.4392 84.9866H7.38577L0 2.40918H5.77786L9.22337 49.6923L9.96549 62.8576L10.7253 49.9724L13.6584 2.40918H19.4009L22.493 49.6923L23.2881 62.8576L24.0833 50.1965L27.5641 2.40918Z" fill="black" style="fill:black;fill-opacity:1;"/>
</svg>
