<svg width="17" height="17" viewBox="0 0 17 17" fill="none" xmlns="http://www.w3.org/2000/svg">
<path d="M14 15H10.5479L10.0798 13.8722H9.53856C9.52394 13.796 9.46543 13.6436 9.07048 13.6284C8.95346 13.6284 8.73112 13.5644 8.77793 13.2474C8.83644 12.8511 8.96618 12.0891 8.89495 11.6624C8.84916 11.388 9.05585 11.2509 9.05585 10.7175C9.05585 10.5112 9.01746 10.2503 8.98497 10.1103C8.97697 10.0758 8.99667 10.0406 9.02874 10.0285C9.11193 9.99731 9.17113 9.938 9.23138 9.72685C9.28502 9.53888 9.38936 9.10809 9.37766 8.88863C9.36303 8.6143 9.23138 8.47714 9.07048 8.44666C8.90957 8.41618 8.74867 8.26377 8.74867 8.17233C8.74867 8.08089 8.85106 8.03517 8.85106 7.73036C8.85106 7.42556 8.69016 7.30363 8.51463 7.30363C8.3391 7.30363 8.17819 7.42556 8.17819 7.73036C8.17819 8.03517 8.28058 8.08089 8.28058 8.17233C8.28058 8.26377 8.11968 8.41618 7.95878 8.44666C7.79787 8.47714 7.66622 8.6143 7.6516 8.88863C7.63989 9.10809 7.74424 9.53888 7.79787 9.72685C7.85812 9.938 7.91733 9.99731 8.00052 10.0285C8.03258 10.0406 8.05229 10.0758 8.04429 10.1103C8.01179 10.2503 7.9734 10.5112 7.9734 10.7175C7.9734 11.2509 8.1801 11.388 8.13431 11.6624C8.06308 12.0891 8.19282 12.8511 8.25133 13.2474C8.29814 13.5644 8.0758 13.6284 7.95878 13.6284C7.56383 13.6436 7.50532 13.796 7.49069 13.8722H6.94947L6.48138 15H3L8.5 2L14 15Z" fill="black" style="fill:black;fill-opacity:1;"/>
</svg>
